<?xml version="1.0" encoding="UTF-8" standalone="no"?>
<!-- Created with Inkscape (http://www.inkscape.org/) -->

<svg
   width="1024"
   height="1024"
   viewBox="0 0 270.93333 270.93333"
   version="1.1"
   id="svg5"
   xml:space="preserve"
   sodipodi:docname="icon.svg"
   inkscape:version="1.2.1 (9c6d41e4, 2022-07-14)"
   inkscape:export-filename="icon.png"
   inkscape:export-xdpi="96"
   inkscape:export-ydpi="96"
   xmlns:inkscape="http://www.inkscape.org/namespaces/inkscape"
   xmlns:sodipodi="http://sodipodi.sourceforge.net/DTD/sodipodi-0.dtd"
   xmlns:xlink="http://www.w3.org/1999/xlink"
   xmlns="http://www.w3.org/2000/svg"
   xmlns:svg="http://www.w3.org/2000/svg"><sodipodi:namedview
     id="namedview7"
     pagecolor="#ffffff"
     bordercolor="#000000"
     borderopacity="0.25"
     inkscape:showpageshadow="2"
     inkscape:pageopacity="0"
     inkscape:pagecheckerboard="0"
     inkscape:deskcolor="#d1d1d1"
     inkscape:document-units="mm"
     showgrid="false"
     showborder="true"
     borderlayer="true"
     showguides="true"
     inkscape:zoom="0.56159499"
     inkscape:cx="330.30922"
     inkscape:cy="400.6446"
     inkscape:window-width="2446"
     inkscape:window-height="1246"
     inkscape:window-x="1599"
     inkscape:window-y="44"
     inkscape:window-maximized="0"
     inkscape:current-layer="layer1"><sodipodi:guide
       position="-13.050237,242.82531"
       orientation="0,-1"
       id="guide3395"
       inkscape:locked="false" /><sodipodi:guide
       position="94.234491,26.433029"
       orientation="0,-1"
       id="guide3399"
       inkscape:locked="false" /><sodipodi:guide
       position="26.46895,44.617474"
       orientation="1,0"
       id="guide3403"
       inkscape:locked="false" /><sodipodi:guide
       position="244.50767,157.04565"
       orientation="1,0"
       id="guide3405"
       inkscape:locked="false" /><sodipodi:guide
       position="39.675325,138.44608"
       orientation="1,0"
       id="guide2344"
       inkscape:locked="false" /><sodipodi:guide
       position="232.38405,95.582561"
       orientation="1,0"
       id="guide2346"
       inkscape:locked="false" /><sodipodi:guide
       position="161.8895,231.61225"
       orientation="0,-1"
       id="guide2348"
       inkscape:locked="false" /><sodipodi:guide
       position="105.91895,38.195037"
       orientation="0,-1"
       id="guide2350"
       inkscape:locked="false" /><sodipodi:guide
       position="93.870177,193.76886"
       orientation="1,0"
       id="guide2352"
       inkscape:locked="false" /><sodipodi:guide
       position="178.19423,38.195037"
       orientation="1,0"
       id="guide2354"
       inkscape:locked="false" /><sodipodi:guide
       position="135.76704,0"
       orientation="1,0"
       id="guide2356"
       inkscape:locked="false" /><sodipodi:guide
       position="-13.050237,176.79798"
       orientation="0,-1"
       id="guide2358"
       inkscape:locked="false" /><sodipodi:guide
       position="-18.827069,135.16629"
       orientation="0,-1"
       id="guide2360"
       inkscape:locked="false" /><sodipodi:guide
       position="-31.820399,93.269435"
       orientation="0,-1"
       id="guide2362"
       inkscape:locked="false" /><sodipodi:guide
       position="45.609239,44.478157"
       orientation="0.70710617,-0.7071074"
       id="guide2364"
       inkscape:locked="false" /><sodipodi:guide
       position="51.973318,218.42967"
       orientation="0.70484115,0.70936517"
       id="guide3200"
       inkscape:locked="false" /><sodipodi:guide
       position="49.321619,111.83133"
       orientation="0.68288378,-0.73052703"
       id="guide3202"
       inkscape:locked="false" /><sodipodi:guide
       position="121.44786,61.449036"
       orientation="-0.70960099,0.70460374"
       id="guide3204"
       inkscape:locked="false" /><sodipodi:guide
       position="213.46184,-7.2299918"
       orientation="0.72499942,0.68874948"
       id="guide3206"
       inkscape:locked="false" /><sodipodi:guide
       position="287.70944,38.195037"
       orientation="-0.71984432,-0.69413554"
       id="guide3208"
       inkscape:locked="false" /></sodipodi:namedview><defs
     id="defs2"><inkscape:path-effect
       effect="fillet_chamfer"
       id="path-effect6344"
       is_visible="true"
       lpeversion="1"
       nodesatellites_param="F,0,0,1,0,46.566667,0,1 @ F,0,0,1,0,46.566667,0,1 @ F,0,0,1,0,46.566667,0,1 @ F,0,0,1,0,46.566667,0,1"
       unit="px"
       method="auto"
       mode="F"
       radius="176"
       chamfer_steps="1"
       flexible="false"
       use_knot_distance="true"
       apply_no_radius="true"
       apply_with_radius="true"
       only_selected="false"
       hide_knots="false" /><linearGradient
       inkscape:collect="always"
       id="linearGradient3436"><stop
         style="stop-color:#d3e2e8;stop-opacity:1;"
         offset="0"
         id="stop3432" /><stop
         style="stop-color:#858482;stop-opacity:1;"
         offset="1"
         id="stop3434" /></linearGradient><linearGradient
       inkscape:collect="always"
       xlink:href="#linearGradient3436"
       id="linearGradient3438"
       x1="26.46895"
       y1="26.4025"
       x2="26.46895"
       y2="244.50029"
       gradientUnits="userSpaceOnUse" /><filter
       style="color-interpolation-filters:sRGB;"
       inkscape:label="Drop Shadow"
       id="filter26421"
       x="-0.033021656"
       y="-0.033012714"
       width="1.0660433"
       height="1.0797807"><feFlood
         flood-opacity="0.498039"
         flood-color="rgb(0,0,0)"
         result="flood"
         id="feFlood26411" /><feComposite
         in="flood"
         in2="SourceGraphic"
         operator="in"
         result="composite1"
         id="feComposite26413" /><feGaussianBlur
         in="composite1"
         stdDeviation="3"
         result="blur"
         id="feGaussianBlur26415" /><feOffset
         dx="0"
         dy="3"
         result="offset"
         id="feOffset26417" /><feComposite
         in="SourceGraphic"
         in2="offset"
         operator="over"
         result="composite2"
         id="feComposite26419" /></filter><filter
       style="color-interpolation-filters:sRGB;"
       inkscape:label="Drop Shadow"
       id="filter35003"
       x="-0.13874336"
       y="-0.14683973"
       width="1.2774867"
       height="1.3548627"><feFlood
         flood-opacity="1"
         flood-color="rgb(0,0,0)"
         result="flood"
         id="feFlood34993" /><feComposite
         in="flood"
         in2="SourceGraphic"
         operator="out"
         result="composite1"
         id="feComposite34995" /><feGaussianBlur
         in="composite1"
         stdDeviation="4"
         result="blur"
         id="feGaussianBlur34997" /><feOffset
         dx="0"
         dy="4"
         result="offset"
         id="feOffset34999" /><feComposite
         in="offset"
         in2="SourceGraphic"
         operator="in"
         result="fbSourceGraphic"
         id="feComposite35001" /><feColorMatrix
         result="fbSourceGraphicAlpha"
         in="fbSourceGraphic"
         values="0 0 0 -1 0 0 0 0 -1 0 0 0 0 -1 0 0 0 0 1 0"
         id="feColorMatrix35005" /><feFlood
         id="feFlood35007"
         flood-opacity="1"
         flood-color="rgb(0,0,0)"
         result="flood"
         in="fbSourceGraphic" /><feComposite
         in2="fbSourceGraphic"
         id="feComposite35009"
         in="flood"
         operator="out"
         result="composite1" /><feGaussianBlur
         id="feGaussianBlur35011"
         in="composite1"
         stdDeviation="4"
         result="blur" /><feOffset
         id="feOffset35013"
         dx="0"
         dy="4"
         result="offset" /><feComposite
         in2="fbSourceGraphic"
         id="feComposite35015"
         in="offset"
         operator="in"
         result="composite2" /></filter><filter
       style="color-interpolation-filters:sRGB;"
       inkscape:label="Drop Shadow"
       id="filter35303"
       x="-0.0052028762"
       y="-0.011242417"
       width="1.0104058"
       height="1.0167489"><feFlood
         flood-opacity="1"
         flood-color="rgb(255,255,255)"
         result="flood"
         id="feFlood35293" /><feComposite
         in="flood"
         in2="SourceGraphic"
         operator="out"
         result="composite1"
         id="feComposite35295" /><feGaussianBlur
         in="composite1"
         stdDeviation="0.3"
         result="blur"
         id="feGaussianBlur35297" /><feOffset
         dx="0"
         dy="-0.75"
         result="offset"
         id="feOffset35299" /><feComposite
         in="offset"
         in2="SourceGraphic"
         operator="atop"
         result="composite2"
         id="feComposite35301" /></filter></defs><g
     inkscape:label="Layer 1"
     inkscape:groupmode="layer"
     id="layer1"><rect
       style="fill:url(#linearGradient3438);fill-opacity:1;stroke-width:0.264583;filter:url(#filter26421)"
       id="rect3407"
       width="218.03873"
       height="218.09779"
       x="26.46895"
       y="26.4025"
       inkscape:path-effect="#path-effect6344"
       d="M 73.035617,26.4025 H 197.94101 a 46.566667,46.566667 45 0 1 46.56667,46.566667 V 197.93363 a 46.566667,46.566667 135 0 1 -46.56667,46.56666 H 73.035617 A 46.566667,46.566667 45 0 1 26.46895,197.93363 V 72.969167 A 46.566667,46.566667 135 0 1 73.035617,26.4025 Z"
       inkscape:label="Rounded rectangle" /><g
       id="g36173"
       transform="matrix(1.0350433,0,0,1.0350433,-5.1263259,-1.6029686)"><g
         id="Medium-L"
         transform="matrix(1.0565288,0,0,1.0565288,45.365375,178.89334)"
         style="display:inline;fill:#434544;fill-opacity:1;filter:url(#filter35303)"
         inkscape:label="Bubble"><path
           d="m 54.3718,33.9608 c 3.1155,0 5.4048,-1.5217 9.0955,-4.8042 L 85.319,9.97771 h 40.737 c 18.076,0 28.413,-10.571059 28.413,-28.41251 v -49.9467 c 0,-17.8414 -10.337,-28.4125 -28.413,-28.4125 H 44.4964 c -18.0761,0 -28.4124,10.5262 -28.4124,28.4125 v 49.9467 c 0,17.886377 10.5466,28.41251 28.0971,28.41251 h 3.1461 V 25.9675 c 0,4.9214 2.6134,7.9933 7.0446,7.9933 z M 57.0219,21.9159 V 3.77409 c 0,-3.289602 -1.3673,-4.530682 -4.5307,-4.530682 h -7.6765 c -11.9722,0 -17.9964,-6.336718 -17.9964,-17.996408 v -49.3102 c 0,-11.6348 6.0242,-17.949 17.9964,-17.949 h 80.9233 c 11.882,0 17.997,6.3142 17.997,17.949 v 49.3102 c 0,11.65969 -6.115,17.996408 -17.997,17.996408 H 84.8683 c -3.398,0 -5.082,0.579655 -7.5302,3.034322 z m -2.439,-71.7872 c 0,7.2531 4.655,12.7028 11.7015,12.7028 2.8659,0 5.5488,-0.6395 7.2561,-2.7834 h 0.6627 c -2.1205,5.3436 -7.1845,8.8413 -11.5463,9.9523 -2.1172,0.5564 -2.8486,1.57 -2.8486,2.9962 0,1.6066 1.3074,2.8193 3.0538,2.8193 6.3565,0 19.0892,-7.6882 19.0892,-23.1658 0,-8.892 -5.7907,-15.4746 -14.0038,-15.4746 -7.6327,0 -13.3646,5.4104 -13.3646,12.9532 z m 34.2854,0 c 0,7.2531 4.6076,12.7028 11.7017,12.7028 2.818,0 5.549,-0.6395 7.256,-2.7834 h 0.685 c -2.098,5.3436 -7.232,8.8413 -11.5686,9.9523 -2.0948,0.5564 -2.8486,1.57 -2.8486,2.9962 0,1.6066 1.2599,2.8193 3.0538,2.8193 6.3794,0 19.0414,-7.6882 19.0414,-23.1658 0,-8.892 -5.72,-15.4746 -13.956,-15.4746 -7.6327,0 -13.3647,5.4104 -13.3647,12.9532 z"
           id="path1783"
           style="fill:#434544;fill-opacity:1" /></g><g
         id="Medium-L-7"
         transform="matrix(1.0565288,0,0,1.0565288,45.365375,178.89334)"
         style="display:inline;fill:#434544;fill-opacity:1;filter:url(#filter35003)"
         inkscape:label="Internal shadow"><path
           d="m 54.3718,33.9608 c 3.1155,0 5.4048,-1.5217 9.0955,-4.8042 L 85.319,9.97771 h 40.737 c 18.076,0 28.413,-10.571059 28.413,-28.41251 v -49.9467 c 0,-17.8414 -10.337,-28.4125 -28.413,-28.4125 H 44.4964 c -18.0761,0 -28.4124,10.5262 -28.4124,28.4125 v 49.9467 c 0,17.886377 10.5466,28.41251 28.0971,28.41251 h 3.1461 V 25.9675 c 0,4.9214 2.6134,7.9933 7.0446,7.9933 z M 57.0219,21.9159 V 3.77409 c 0,-3.289602 -1.3673,-4.530682 -4.5307,-4.530682 h -7.6765 c -11.9722,0 -17.9964,-6.336718 -17.9964,-17.996408 v -49.3102 c 0,-11.6348 6.0242,-17.949 17.9964,-17.949 h 80.9233 c 11.882,0 17.997,6.3142 17.997,17.949 v 49.3102 c 0,11.65969 -6.115,17.996408 -17.997,17.996408 H 84.8683 c -3.398,0 -5.082,0.579655 -7.5302,3.034322 z m -2.439,-71.7872 c 0,7.2531 4.655,12.7028 11.7015,12.7028 2.8659,0 5.5488,-0.6395 7.2561,-2.7834 h 0.6627 c -2.1205,5.3436 -7.1845,8.8413 -11.5463,9.9523 -2.1172,0.5564 -2.8486,1.57 -2.8486,2.9962 0,1.6066 1.3074,2.8193 3.0538,2.8193 6.3565,0 19.0892,-7.6882 19.0892,-23.1658 0,-8.892 -5.7907,-15.4746 -14.0038,-15.4746 -7.6327,0 -13.3646,5.4104 -13.3646,12.9532 z m 34.2854,0 c 0,7.2531 4.6076,12.7028 11.7017,12.7028 2.818,0 5.549,-0.6395 7.256,-2.7834 h 0.685 c -2.098,5.3436 -7.232,8.8413 -11.5686,9.9523 -2.0948,0.5564 -2.8486,1.57 -2.8486,2.9962 0,1.6066 1.2599,2.8193 3.0538,2.8193 6.3794,0 19.0414,-7.6882 19.0414,-23.1658 0,-8.892 -5.72,-15.4746 -13.956,-15.4746 -7.6327,0 -13.3647,5.4104 -13.3647,12.9532 z"
           id="path1783-1"
           style="fill:#434544;fill-opacity:1" /></g></g></g></svg>
